# xmcd
#
# Track frame offsets:
#	150
#	15094
#	32160
#	45456
#	62916
#	81169
#	97194
#	113924
#
# Disc length: 1721 seconds
#
# Revision: 0
# Processed by: cddbd v1.5.2PL0 Copyright (c) Steve Scherf et al.
# Submitted via: EasyCDDAExtractor 15.2.5.1
#
DISCID=5d06b708
DTITLE=Various Artist - CD-Tex - Volume 22
DYEAR=2004
DGENRE=Country
TTITLE0=Walt Wilkins - I Chose This Road (Radio Edit)
TTITLE1=Walt Wilkins - I Chose This Road (Full Version
TTITLE2=Dale Watson - Honky Tonkers Don't Cry
TTITLE3=Cerrito and Janie Fricke - Stranger
TTITLE4=Brenn Hill - Buckaroo Tattoo
TTITLE5=Rodney Hayden - Broke Down
TTITLE6=Mark Winston Kirk - Margarita
TTITLE7=Keith Norris - It Ain't A Party
EXTD=
EXTT0=
EXTT1=
EXTT2=
EXTT3=
EXTT4=
EXTT5=
EXTT6=
EXTT7=
PLAYORDER=
